<?xml version="1.0" standalone="no"?>
<!DOCTYPE svg PUBLIC "-//W3C//DTD SVG 20010904//EN"
 "http://www.w3.org/TR/2001/REC-SVG-20010904/DTD/svg10.dtd">
<svg version="1.0" xmlns="http://www.w3.org/2000/svg"
 width="512.000000pt" height="512.000000pt" viewBox="0 0 512.000000 512.000000"
 preserveAspectRatio="xMidYMid meet">
<metadata>
Created by potrace 1.11, written by Peter Selinger 2001-2013
</metadata>
<g transform="translate(0.000000,512.000000) scale(0.100000,-0.100000)"
fill="#000000" stroke="none">
<path d="M2514 4736 c-3 -8 -19 -18 -35 -21 -16 -4 -29 -11 -29 -16 0 -14
-108 -11 -112 3 -3 8 -12 9 -37 0 -27 -9 -36 -9 -48 3 -32 32 -163 6 -163 -32
0 -13 -20 -18 -50 -14 -8 1 -40 2 -72 2 -50 -1 -60 -4 -92 -35 -20 -18 -36
-43 -36 -55 0 -12 -6 -21 -15 -21 -8 0 -15 -4 -15 -9 0 -5 -13 -12 -28 -16
-35 -7 -60 -42 -37 -51 8 -4 15 -15 15 -26 0 -17 5 -18 58 -13 33 4 69 2 85
-4 16 -6 59 -14 98 -17 38 -4 69 -10 69 -15 0 -12 -30 -39 -43 -39 -14 0 -47
-35 -47 -50 0 -5 -24 -24 -54 -40 -30 -17 -65 -46 -77 -66 -13 -19 -34 -37
-46 -40 -13 -4 -23 -10 -23 -15 0 -5 -13 -9 -30 -9 -38 0 -59 33 -35 56 23 23
20 95 -5 117 -26 22 -28 22 -56 -8 -13 -14 -27 -25 -32 -25 -18 0 -21 29 -5
45 14 15 14 17 -3 31 -11 8 -27 19 -37 25 -10 5 -15 14 -12 20 11 17 -45 9
-63 -9 -30 -30 -35 -53 -12 -59 11 -3 20 -8 20 -12 0 -9 -38 -41 -49 -41 -5 0
-14 -7 -21 -15 -7 -8 -29 -15 -49 -15 -54 0 -77 -9 -91 -36 -8 -13 -19 -24
-25 -24 -26 0 -48 -39 -42 -75 l6 -35 -44 0 c-29 0 -45 -5 -49 -15 -3 -8 -12
-15 -20 -15 -23 0 -40 -37 -22 -47 8 -4 16 -28 18 -53 2 -36 0 -44 -12 -42 -8
2 -39 -2 -68 -9 -41 -10 -56 -18 -63 -36 -5 -13 -17 -26 -26 -30 -34 -12 -54
-42 -51 -77 1 -22 -5 -42 -15 -54 -23 -25 -21 -42 8 -74 31 -34 31 -39 0 -88
-22 -35 -30 -40 -63 -40 -37 -1 -72 -24 -116 -77 -17 -21 -17 -23 1 -54 13
-24 15 -33 6 -36 -15 -6 -17 -49 -3 -58 6 -3 10 -17 10 -30 0 -13 4 -25 9 -27
5 -1 12 -21 15 -44 7 -37 4 -44 -23 -72 -17 -17 -31 -39 -31 -49 -1 -10 -15
-27 -33 -38 -17 -11 -38 -33 -45 -48 -7 -15 -17 -27 -23 -27 -16 0 -11 -77 6
-84 8 -3 15 -17 15 -31 0 -29 16 -60 47 -90 16 -16 22 -34 23 -66 0 -24 0 -63
0 -86 0 -24 0 -55 -1 -70 -1 -42 12 -91 27 -104 8 -6 14 -18 14 -27 0 -8 11
-25 25 -38 25 -23 34 -64 15 -64 -6 0 -10 -30 -10 -69 0 -60 3 -71 26 -95 15
-14 38 -26 51 -26 29 0 43 -29 20 -42 -10 -5 -17 -16 -17 -24 0 -9 -7 -22 -15
-30 -19 -20 -19 -68 0 -84 8 -7 15 -18 15 -26 0 -7 16 -16 38 -20 20 -4 44
-12 52 -20 8 -7 29 -20 45 -28 28 -15 30 -19 30 -75 0 -70 20 -94 70 -87 39 5
65 -14 65 -47 0 -36 32 -56 78 -50 28 4 44 0 65 -17 15 -12 27 -28 27 -35 0
-22 40 -38 95 -39 46 -1 51 -3 67 -34 23 -47 74 -72 147 -72 57 0 59 -1 70
-30 5 -16 17 -30 25 -30 9 0 16 -4 16 -10 0 -5 4 -10 9 -10 6 0 25 -14 43 -30
31 -29 88 -42 88 -20 0 18 34 50 53 50 9 0 20 -7 23 -15 4 -8 16 -15 29 -15
13 0 25 -7 29 -15 4 -11 21 -15 65 -15 33 0 63 -4 66 -10 3 -5 30 -10 59 -10
30 0 60 -6 72 -15 10 -8 29 -15 42 -15 13 0 25 -8 28 -18 3 -9 11 -26 17 -37
18 -33 28 -136 33 -380 6 -255 7 -258 72 -270 67 -13 284 -17 295 -6 6 6 19
11 29 11 10 0 27 8 38 17 18 16 20 30 20 163 0 80 5 205 11 278 6 84 7 138 0
149 -13 25 19 63 52 63 17 0 37 13 60 40 26 31 41 40 65 40 22 0 32 5 32 15 0
8 7 15 15 15 8 0 15 7 15 15 0 11 11 15 38 15 32 0 39 -5 53 -33 9 -17 27 -38
40 -45 28 -15 111 -10 117 7 2 6 10 11 18 11 8 0 14 7 14 15 0 8 5 15 10 15 6
0 10 5 10 10 0 13 37 50 50 50 6 0 10 5 10 10 0 15 38 12 65 -6 18 -12 41 -15
84 -12 48 3 63 9 85 33 24 25 32 28 80 26 45 -2 58 2 80 22 14 13 26 29 26 34
0 6 11 21 24 35 12 14 26 33 29 42 8 20 46 21 53 1 8 -21 18 -19 45 10 13 13
31 25 39 25 8 0 25 22 38 50 16 35 30 52 47 56 19 5 25 13 25 35 0 16 4 29 9
29 5 0 13 10 16 21 6 18 12 20 46 15 35 -6 42 -3 72 28 18 18 42 36 52 40 11
4 28 23 37 43 15 32 15 39 2 73 -8 20 -28 47 -44 59 -31 23 -40 51 -16 51 28
0 34 50 9 75 -29 29 -20 68 25 112 23 22 42 46 42 52 0 6 7 11 15 11 8 0 15 8
15 19 0 10 11 26 25 35 29 19 32 50 10 92 -21 40 -21 172 0 180 8 4 15 12 15
19 0 7 7 18 15 25 8 7 15 25 15 40 0 15 9 35 20 45 16 14 19 26 15 49 -8 38
-38 106 -47 106 -15 0 -68 60 -68 78 0 10 -13 29 -30 42 -16 14 -29 32 -30 41
0 24 31 112 46 130 19 21 18 56 -2 67 -13 7 -13 12 3 40 15 26 16 35 5 49 -7
10 -15 26 -18 36 -4 9 -13 17 -20 17 -8 0 -14 4 -14 8 0 12 -73 42 -103 42
-21 0 -28 6 -33 28 -4 15 -11 30 -16 33 -9 6 17 65 33 74 14 9 11 55 -6 71 -9
9 -15 33 -15 58 0 37 -5 47 -40 76 -22 18 -40 41 -40 51 0 23 -20 29 -90 29
l-59 0 6 38 c3 20 12 49 21 63 14 24 13 28 -7 48 -11 11 -25 21 -31 21 -5 0
-10 5 -10 10 0 6 -11 10 -24 10 -13 0 -26 7 -30 15 -4 11 -22 15 -71 15 -50 0
-65 3 -65 14 0 8 5 18 10 21 14 9 13 48 -2 63 -7 7 -29 12 -50 12 -32 0 -39 4
-44 25 -3 14 -17 34 -30 44 -28 22 -30 30 -8 46 16 11 16 14 -2 43 -10 18 -24
32 -30 32 -7 0 -15 7 -18 16 -5 13 -24 15 -123 13 l-118 -3 -3 27 c-2 18 2 29
12 33 20 8 21 34 1 34 -8 0 -15 4 -15 9 0 5 -11 12 -24 15 -16 4 -31 20 -43
46 -10 22 -22 40 -26 40 -4 0 -18 12 -31 27 -18 21 -34 27 -78 31 -32 2 -64
-1 -77 -8 -26 -14 -81 -4 -81 15 0 26 -97 27 -148 2 -17 -8 -28 -8 -42 1 -11
7 -28 12 -39 12 -10 0 -21 7 -25 15 -4 11 -21 15 -66 15 -45 0 -62 4 -66 15
-8 21 -122 21 -130 1z m183 -72 c28 -21 33 -31 33 -65 0 -28 -4 -39 -15 -39
-8 0 -15 5 -15 10 0 15 -36 12 -50 -5 -7 -8 -21 -15 -31 -15 -11 0 -28 -5 -39
-12 -15 -10 -24 -9 -44 2 -38 20 -32 46 25 101 58 57 86 62 136 23z m-387 -36
c66 -43 78 -78 28 -78 -11 0 -31 -11 -44 -25 -13 -14 -34 -25 -46 -25 -14 0
-35 -13 -50 -31 -22 -24 -34 -30 -59 -27 -27 2 -37 11 -56 47 -13 24 -23 61
-23 81 0 40 -4 36 90 78 50 21 108 14 160 -20z m646 -70 c50 -25 61 -58 20
-58 -14 0 -28 5 -32 11 -4 7 -21 9 -44 5 -27 -4 -41 -2 -50 9 -7 9 -11 16 -9
18 52 30 65 37 68 37 2 0 23 -10 47 -22z m-270 -73 c10 -8 27 -15 36 -15 21 0
100 -39 110 -54 4 -6 8 -28 8 -49 0 -28 -7 -44 -26 -62 -26 -24 -103 -43 -123
-30 -6 3 -11 0 -11 -8 0 -19 36 -42 78 -51 17 -4 34 -12 37 -17 10 -15 45 -10
45 6 0 8 4 15 9 15 5 0 12 12 15 26 l7 27 20 -21 c10 -12 19 -32 19 -46 0 -22
-6 -26 -46 -32 l-46 -7 6 -38 c11 -66 -43 -66 -84 0 -14 22 -28 41 -32 41 -5
0 -8 11 -8 25 0 31 -13 32 -28 3 -37 -71 -67 -97 -112 -98 -25 0 -44 8 -64 27
-27 25 -31 26 -73 15 -57 -16 -88 -15 -105 1 -7 8 -23 19 -35 25 -18 10 -23 8
-37 -13 -9 -14 -23 -25 -31 -25 -8 0 -15 -4 -15 -10 0 -18 -98 -12 -120 7 -37
32 -22 153 19 153 13 0 71 56 71 68 0 7 7 12 15 12 8 0 15 4 15 9 0 5 14 11
31 15 28 5 120 62 127 79 2 4 11 7 21 7 9 0 26 7 37 15 27 21 242 21 270 0z
m247 -21 c17 -6 11 -41 -10 -63 -12 -11 -17 -10 -34 7 -18 20 -18 22 -2 42 19
22 23 23 46 14z m-1343 -176 c0 -4 -7 -8 -16 -8 -12 0 -15 -6 -10 -26 5 -20 3
-27 -14 -31 -11 -3 -20 -9 -20 -14 0 -5 -9 -9 -20 -9 -27 0 -27 37 0 45 11 3
22 16 26 29 3 15 13 22 30 22 13 0 24 -4 24 -8z m1564 -114 c7 -19 -10 -44
-30 -44 -8 0 -14 -5 -14 -11 0 -13 -72 -7 -77 7 -4 12 26 48 47 57 30 11 68 7
74 -9z m-1500 -19 c9 -13 16 -34 16 -45 0 -11 7 -23 15 -26 8 -4 15 -12 15
-19 0 -7 -7 -18 -15 -25 -8 -7 -15 -23 -15 -37 0 -36 -27 -71 -66 -83 -36 -12
-94 -5 -106 14 -7 11 -65 -16 -79 -37 -4 -5 -16 -6 -28 -2 -17 5 -20 10 -11
20 7 8 9 18 6 23 -10 17 14 81 34 87 11 4 20 11 20 16 0 5 6 9 14 9 8 0 23 14
33 30 9 17 21 30 26 30 4 0 18 11 30 23 18 20 63 43 88 46 4 1 14 -10 23 -24z
m369 -50 c28 -15 56 -33 60 -41 6 -10 29 -14 87 -14 79 0 80 0 80 -25 0 -14
-4 -25 -10 -25 -5 0 -10 -6 -10 -14 0 -8 -7 -16 -15 -20 -18 -7 -20 -40 -2
-54 7 -6 14 -28 15 -48 2 -21 5 -41 8 -46 8 -13 -48 -30 -79 -24 -15 3 -41 20
-57 38 -31 34 -36 31 -42 -27 -2 -22 -9 -31 -25 -33 -14 -2 -25 -13 -29 -27
-3 -14 -16 -27 -27 -31 -22 -7 -22 -7 -2 -14 11 -4 22 -4 25 0 3 4 27 14 53
23 45 15 50 15 75 -1 38 -23 30 -47 -24 -69 -24 -10 -44 -24 -44 -30 0 -22
-73 -16 -93 7 -9 11 -17 25 -17 30 0 6 -4 10 -10 10 -5 0 -10 9 -10 20 0 11
-4 20 -8 20 -15 0 -82 62 -82 76 0 7 -7 17 -17 22 -14 9 -14 11 6 22 30 15 13
33 -23 24 -23 -5 -26 -11 -26 -46 l0 -39 -41 3 c-38 3 -42 1 -63 -37 -24 -42
-64 -58 -91 -35 -21 17 -31 -27 -11 -49 9 -10 16 -23 16 -29 0 -7 6 -12 13
-12 13 -1 57 -34 57 -44 0 -3 -10 -12 -23 -20 -19 -13 -28 -13 -62 -2 -22 8
-41 19 -43 25 -5 14 -52 15 -52 1 0 -27 -123 -27 -140 0 -3 5 -17 11 -31 15
-21 5 -32 1 -53 -22 -14 -15 -26 -32 -26 -36 0 -12 -61 3 -87 22 -12 9 -25 31
-29 50 -12 60 22 70 159 45 30 -5 37 -3 37 10 0 9 4 16 10 16 5 0 12 11 16 25
3 14 11 25 18 25 6 0 18 5 26 10 13 8 13 11 1 19 -11 7 -9 13 8 30 11 11 28
21 36 21 9 0 18 7 21 15 4 8 12 15 19 15 7 0 18 6 24 13 6 8 29 19 52 26 35
10 44 10 65 -4 17 -11 23 -22 19 -34 -5 -16 3 -19 54 -24 93 -10 119 11 54 43
-26 13 -32 22 -37 64 -6 37 -3 56 12 85 33 63 87 111 152 135 30 11 111 -4
163 -29z m1192 -25 c11 -27 23 -50 27 -50 4 0 8 -7 8 -15 0 -11 -18 -15 -77
-17 -76 -3 -78 -4 -78 -28 0 -21 -5 -25 -36 -28 -29 -2 -39 2 -52 22 -14 20
-15 30 -5 51 6 14 19 25 29 25 10 0 23 9 29 20 6 11 21 20 35 20 13 0 30 6 37
13 15 13 50 36 58 36 3 1 14 -21 25 -49z m-1815 -13 c0 -24 -24 -37 -67 -37
-47 0 -49 1 -31 30 15 24 98 30 98 7z m1230 7 c0 -3 -9 -19 -21 -35 -22 -32
-37 -35 -72 -17 -12 6 -29 14 -37 18 -8 4 -16 15 -18 24 -3 14 7 16 72 16 42
0 76 -3 76 -6z m621 -121 c33 -19 37 -47 12 -75 -21 -23 -76 -24 -103 -1 -24
21 -27 63 -5 63 9 0 18 7 21 15 8 20 39 19 75 -2z m-1931 -33 c22 -22 25 -41
11 -68 -18 -35 -31 -90 -26 -105 16 -40 -157 -45 -196 -6 -23 23 -24 48 -4 55
8 4 15 12 15 20 0 8 7 14 15 14 8 0 15 4 15 8 0 13 55 72 67 72 6 0 16 7 23
15 17 21 56 19 80 -5z m1700 -167 c56 -25 162 -140 174 -188 10 -41 -2 -88
-21 -81 -21 8 -81 -38 -85 -66 -2 -12 -9 -23 -15 -26 -17 -5 -81 63 -96 102
-7 17 -9 17 -32 -8 -14 -15 -25 -29 -25 -32 0 -3 -15 -18 -32 -35 l-32 -29 32
0 c22 0 32 -5 32 -15 0 -8 -7 -15 -15 -15 -8 0 -15 -6 -15 -14 0 -24 -29 -46
-60 -46 -19 0 -40 12 -64 35 -42 41 -46 62 -11 71 14 3 25 12 25 19 0 19 -48
27 -103 16 -57 -10 -83 -5 -110 22 -20 20 -20 20 -36 0 -34 -44 -116 -59 -142
-27 -17 21 -39 104 -27 104 4 0 8 9 8 20 0 11 5 20 12 20 11 0 68 58 68 69 0
3 17 13 38 23 94 41 111 48 119 48 5 0 20 11 32 24 29 31 36 32 206 28 100 -3
150 -8 175 -19z m-620 0 c19 -17 19 -17 0 -35 -25 -23 -40 -23 -40 1 0 21 10
51 16 51 2 0 13 -8 24 -17z m-705 -93 c4 -6 -6 -10 -22 -9 -25 0 -26 1 -8 9
11 5 21 9 22 9 1 1 5 -3 8 -9z m-660 -30 c3 -5 -1 -10 -9 -10 -9 0 -16 5 -16
10 0 6 4 10 9 10 6 0 13 -4 16 -10z m1075 -134 c0 -14 -5 -28 -10 -31 -22 -13
3 -25 54 -25 28 0 57 -5 64 -12 7 -7 12 -44 12 -95 0 -80 -1 -85 -30 -113 -27
-27 -37 -30 -93 -30 -53 0 -65 4 -85 25 -23 24 -25 24 -48 7 -13 -9 -24 -20
-24 -24 0 -15 -69 -8 -99 10 -22 12 -34 14 -39 6 -4 -6 -17 -16 -30 -23 -25
-14 -21 -31 9 -31 14 0 19 -7 19 -25 0 -14 -4 -25 -10 -25 -5 0 -23 -13 -40
-30 -36 -35 -64 -38 -88 -9 -9 12 -25 29 -34 37 -24 22 -13 32 33 32 24 0 38
4 34 10 -3 6 -14 10 -23 10 -18 0 -72 58 -72 78 0 6 -3 12 -6 12 -12 0 -43
-45 -44 -62 0 -10 -7 -18 -15 -18 -8 0 -15 -4 -15 -10 0 -23 -41 -50 -76 -50
l-37 0 5 50 c5 48 33 90 60 90 6 0 22 9 37 19 16 12 36 18 48 15 17 -5 25 4
47 50 15 31 31 56 37 56 6 0 20 11 31 25 16 20 28 25 66 25 26 0 60 7 76 15
38 20 139 20 156 0 14 -17 66 -20 75 -5 3 6 -1 13 -9 16 -9 3 -16 17 -16 30 0
21 4 24 40 24 36 0 40 -3 40 -24z m-790 -7 c10 -5 11 -8 3 -9 -7 0 -13 -6 -13
-12 0 -16 -55 -48 -82 -48 -21 0 -48 22 -48 39 0 6 4 11 9 11 5 0 11 9 14 21
5 18 10 20 54 13 26 -3 55 -10 63 -15z m145 1 c17 -6 14 -9 -17 -15 -42 -8
-73 -1 -63 15 7 12 51 12 80 0z m122 -26 c8 -2 9 -12 4 -31 -6 -22 -13 -27
-32 -25 -29 3 -49 27 -49 58 0 21 2 21 33 12 17 -6 37 -12 44 -14z m-527 -9
c0 -8 7 -15 15 -15 9 0 15 -9 15 -25 0 -20 -5 -25 -25 -25 -36 0 -69 33 -60
59 8 25 55 30 55 6z m1610 -79 c0 -16 -41 -29 -64 -20 -34 13 -15 34 31 34 21
0 33 -5 33 -14z m-110 -10 c0 -8 -6 -21 -14 -28 -7 -8 -16 -23 -20 -33 -3 -11
-20 -28 -37 -37 -29 -17 -31 -17 -48 0 -22 21 -31 55 -21 73 19 30 140 52 140
25z m-1560 -27 c0 -5 11 -9 25 -9 14 0 25 -4 25 -10 0 -5 -16 -10 -35 -10 -21
0 -37 -6 -43 -16 -5 -9 -18 -14 -28 -12 -23 4 -33 48 -11 48 8 0 17 6 20 14 6
15 47 11 47 -5z m260 -77 c0 -4 10 -12 23 -17 29 -13 36 -69 11 -96 -22 -24
-49 -24 -81 1 -14 11 -32 20 -39 20 -18 0 -7 71 14 88 17 13 72 17 72 4z
m-112 -84 c-3 -7 -15 -13 -28 -13 -13 0 -25 6 -27 13 -3 8 6 12 27 12 21 0 30
-4 28 -12z m800 -45 c3 -19 -1 -23 -21 -23 -25 0 -42 23 -31 41 11 19 49 5 52
-18z m485 20 c-7 -2 -21 -2 -30 0 -10 3 -4 5 12 5 17 0 24 -2 18 -5z m-1239
-28 c9 -9 21 -15 28 -13 16 4 58 -37 58 -56 0 -35 -123 -76 -164 -54 -44 23
-47 51 -8 101 29 39 61 47 86 22z m866 0 c7 -8 20 -15 30 -15 18 0 57 -36 48
-45 -2 -3 -23 -6 -46 -7 -49 -2 -82 22 -82 59 0 27 30 32 50 8z m803 -93 c15
-9 27 -20 27 -24 0 -4 8 -8 19 -8 10 0 24 -7 31 -15 7 -8 19 -15 26 -15 8 0
14 -4 14 -10 0 -5 7 -10 15 -10 21 0 19 -51 -2 -72 -10 -9 -24 -24 -31 -32
-17 -21 -132 -22 -172 -1 -29 15 -30 15 -30 -8 0 -16 -9 -28 -27 -37 -45 -22
-52 -20 -94 20 -57 54 -66 56 -83 15 -17 -41 -31 -43 -69 -13 -20 16 -38 21
-68 19 -50 -3 -79 19 -79 62 0 39 29 86 57 93 13 4 23 10 23 14 0 5 22 11 50
15 27 4 52 11 56 16 7 12 111 11 119 -1 8 -12 48 -13 61 -1 25 24 109 20 157
-7z m-1333 -102 c19 -22 41 -40 48 -40 7 0 26 -7 41 -15 22 -11 72 -15 196
-16 155 -2 169 -4 186 -23 19 -20 19 -21 -32 -68 -48 -44 -57 -48 -102 -48
-46 0 -107 24 -107 42 0 4 -7 8 -15 8 -8 0 -15 -4 -15 -10 0 -5 -6 -10 -14
-10 -8 0 -16 -7 -20 -15 -6 -17 -86 -22 -86 -5 0 6 -16 10 -36 10 -26 0 -43
-7 -58 -24 -20 -23 -46 -30 -103 -27 -13 1 -23 6 -23 12 0 6 -13 24 -30 41
-16 16 -30 34 -30 39 0 6 -4 7 -10 4 -5 -3 -10 -13 -10 -21 0 -20 -41 -75 -51
-68 -13 8 2 65 22 85 9 9 25 19 36 21 10 2 19 13 21 26 2 13 10 26 18 29 8 3
14 13 14 23 0 9 15 33 33 53 45 50 81 50 127 -3z m160 -270 c12 -8 12 -10 -3
-16 -22 -8 -50 3 -42 16 8 12 25 13 45 0z m-160 -4 c0 -3 -7 -12 -16 -20 -13
-14 -17 -14 -30 -2 -21 21 -18 26 16 26 17 0 30 -2 30 -4z m313 -63 c-7 -2
-19 -2 -25 0 -7 3 -2 5 12 5 14 0 19 -2 13 -5z m263 -37 c19 -13 48 -42 65
-64 l29 -40 -26 -31 c-17 -20 -35 -31 -52 -31 -37 0 -92 -22 -92 -37 0 -7 -11
-13 -25 -13 -14 0 -25 5 -25 10 0 6 -20 10 -45 10 -25 0 -45 -4 -45 -9 0 -5
-14 -25 -31 -45 -27 -30 -36 -34 -63 -29 -17 3 -38 12 -47 19 -8 8 -24 14 -35
14 -18 1 -18 1 -1 11 9 5 17 17 17 24 0 8 4 15 9 15 5 0 11 17 15 38 5 32 16
44 72 85 37 26 72 47 78 47 6 0 20 11 31 25 29 35 121 36 171 1z"/>
<path d="M3005 3570 l-30 -8 28 -1 c17 -1 27 -7 27 -16 0 -34 78 -7 80 28 0 9
-65 7 -105 -3z"/>
<path d="M2515 2913 c-55 -5 -64 -9 -69 -40 -3 -15 0 -20 12 -18 9 2 29 4 45
4 18 1 27 6 27 17 0 12 7 14 30 9 26 -6 30 -4 30 14 0 12 -6 20 -12 19 -7 -1
-35 -3 -63 -5z"/>
</g>
</svg>
